<svg width="16" height="16" viewBox="0 0 16 16" fill="none" xmlns="http://www.w3.org/2000/svg">
<path d="M7.85277 3.89741L6.10277 2.14741C5.90777 1.95216 5.59077 1.95216 5.39577 2.14741L3.64577 3.89741C3.45052 4.09266 3.45052 4.40916 3.64577 4.60441C3.84077 4.79966 4.15777 4.79966 4.35277 4.60441L5.24927 3.70791V13.5009C5.24927 13.7769 5.47327 14.0009 5.74927 14.0009C6.02527 14.0009 6.24927 13.7769 6.24927 13.5009V3.70791L7.14577 4.60441C7.24327 4.70216 7.37127 4.75091 7.49927 4.75091C7.62727 4.75091 7.75527 4.70216 7.85277 4.60441C8.04802 4.40916 8.04802 4.09266 7.85277 3.89741Z" fill="#1C467A"/>
<path d="M12.3527 11.3974C12.1575 11.2021 11.841 11.2021 11.6457 11.3974L10.7492 12.2939V2.50085C10.7492 2.22485 10.5252 2.00085 10.2492 2.00085C9.97323 2.00085 9.74923 2.22485 9.74923 2.50085V12.2939L8.85273 11.3974C8.65748 11.2021 8.34073 11.2021 8.14574 11.3974C7.95049 11.5926 7.95049 11.9091 8.14574 12.1044L9.89573 13.8544C9.99348 13.9521 10.1212 14.0009 10.2492 14.0009C10.3772 14.0009 10.505 13.9521 10.6027 13.8544L12.3527 12.1044C12.548 11.9091 12.548 11.5926 12.3527 11.3974Z" fill="#1C467A"/>
</svg>
